{"accessors" : [{"bufferView" : 0, "byteOffset" : 0, "componentType" : 5123, "count" : 3816, "type" : "SCALAR", "max" : [3815], "min" : [0]}, {"bufferView" : 1, "byteOffset" : 0, "componentType" : 5126, "count" : 3816, "type" : "VEC3", "max" : [14.52621841430664, 5.048282146453857, 12.76628589630127], "min" : [-45.610042572021484, 0.04828222841024399, -11.903852462768555], "name" : "POSITION"}, {"bufferView" : 1, "byteOffset" : 12, "componentType" : 5126, "count" : 3816, "type" : "VEC3", "max" : [1.0000044107437134, 1.0000044107437134, 1.0000044107437134], "min" : [-1.0000044107437134, -1.0000044107437134, -1.0000044107437134], "name" : "NORMAL"}, {"bufferView" : 1, "byteOffset" : 24, "componentType" : 5126, "count" : 3816, "type" : "VEC2", "max" : [1, -0], "min" : [0, -1], "name" : "TEXCOORD_0"}, {"bufferView" : 0, "byteOffset" : 7632, "componentType" : 5123, "count" : 2400, "type" : "SCALAR", "max" : [2399], "min" : [0]}, {"bufferView" : 2, "byteOffset" : 0, "componentType" : 5126, "count" : 2400, "type" : "VEC3", "max" : [45.610042572021484, 5.048282146453857, 12.248716354370117], "min" : [17.35357093811035, 0.04828222841024399, -12.76628589630127], "name" : "POSITION"}, {"bufferView" : 2, "byteOffset" : 12, "componentType" : 5126, "count" : 2400, "type" : "VEC3", "max" : [1.0000044107437134, 1.0000044107437134, 1.0000044107437134], "min" : [-1.0000044107437134, -1.0000044107437134, -1.0000044107437134], "name" : "NORMAL"}, {"bufferView" : 2, "byteOffset" : 24, "componentType" : 5126, "count" : 2400, "type" : "VEC2", "max" : [1, -0], "min" : [0, -1], "name" : "TEXCOORD_0"}, {"bufferView" : 0, "byteOffset" : 12432, "componentType" : 5123, "count" : 975, "type" : "SCALAR", "max" : [974], "min" : [0]}, {"bufferView" : 3, "byteOffset" : 0, "componentType" : 5126, "count" : 975, "type" : "VEC3", "max" : [2.12770938873291, 2.088270664215088, 0.8556934595108032], "min" : [-2.1277098655700684, -2.088270664215088, -0.8556947708129883], "name" : "POSITION"}, {"bufferView" : 3, "byteOffset" : 12, "componentType" : 5126, "count" : 975, "type" : "VEC3", "max" : [0.9817739725112915, 0.963983952999115, 0.9971073865890503], "min" : [-0.980177640914917, -0.964013397693634, -0.3161276876926422], "name" : "NORMAL"}, {"bufferView" : 3, "byteOffset" : 24, "componentType" : 5126, "count" : 975, "type" : "VEC2", "max" : [0.830596923828125, -0.168701171875], "min" : [0.16939926147460938, -0.8313026428222656], "name" : "TEXCOORD_0"}, {"bufferView" : 0, "byteOffset" : 14384, "componentType" : 5123, "count" : 720, "type" : "SCALAR", "max" : [719], "min" : [0]}, {"bufferView" : 4, "byteOffset" : 0, "componentType" : 5126, "count" : 720, "type" : "VEC3", "max" : [3.1969797611236572, 3.1453208923339844, 1.2074427604675293], "min" : [-3.1969797611236572, -3.1453208923339844, -1.2074427604675293], "name" : "POSITION"}, {"bufferView" : 4, "byteOffset" : 12, "componentType" : 5126, "count" : 720, "type" : "VEC3", "max" : [0.9768087863922119, 0.9659638404846191, 0.999541699886322], "min" : [-0.976893961429596, -0.9659039974212646, -0.9919483065605164], "name" : "NORMAL"}, {"bufferView" : 4, "byteOffset" : 24, "componentType" : 5126, "count" : 720, "type" : "VEC2", "max" : [0.9753875732421875, -0.3238067626953125], "min" : [-0.09999847412109375, -0.999969482421875], "name" : "TEXCOORD_0"}, {"bufferView" : 0, "byteOffset" : 15824, "componentType" : 5123, "count" : 14850, "type" : "SCALAR", "max" : [14849], "min" : [0]}, {"bufferView" : 5, "byteOffset" : 0, "componentType" : 5126, "count" : 14850, "type" : "VEC3", "max" : [3.2732176780700684, 3.155735492706299, 1.3893569707870483], "min" : [-3.2732176780700684, -3.155735492706299, -1.3893569707870483], "name" : "POSITION"}, {"bufferView" : 5, "byteOffset" : 12, "componentType" : 5126, "count" : 14850, "type" : "VEC3", "max" : [0.9988915324211121, 0.9997848868370056, 0.9994143843650818], "min" : [-0.9988433122634888, -0.9911937713623047, -0.9999724626541138], "name" : "NORMAL"}, {"bufferView" : 5, "byteOffset" : 24, "componentType" : 5126, "count" : 14850, "type" : "VEC2", "max" : [1, -0], "min" : [3.0517578125E-05, -0.999969482421875], "name" : "TEXCOORD_0"}, {"bufferView" : 0, "byteOffset" : 45524, "componentType" : 5123, "count" : 47232, "type" : "SCALAR", "max" : [47231], "min" : [0]}, {"bufferView" : 6, "byteOffset" : 0, "componentType" : 5126, "count" : 47232, "type" : "VEC3", "max" : [12.067898750305176, 11.910006523132324, 5.584370136260986], "min" : [-12.067898750305176, -11.910006523132324, -5.584368705749512], "name" : "POSITION"}, {"bufferView" : 6, "byteOffset" : 12, "componentType" : 5126, "count" : 47232, "type" : "VEC3", "max" : [0.8383984565734863, 0.8248605132102966, 0.9999934434890747], "min" : [-0.7416723370552063, -0.7594255208969116, -0.9999890327453613], "name" : "NORMAL"}, {"bufferView" : 6, "byteOffset" : 24, "componentType" : 5126, "count" : 47232, "type" : "VEC2", "max" : [0.5, -0], "min" : [3.0517578125E-05, -0.999969482421875], "name" : "TEXCOORD_0"}], "asset" : {"generator" : "Aspose.3D 21.11", "version" : "2.0"}, "buffers" : [{"uri" : "data:application/octet-stream;base64,", "byteLength" : 2379792}], "bufferViews" : [{"buffer" : 0, "byteOffset" : 0, "byteLength" : 139988, "target" : 34963}, {"buffer" : 0, "byteOffset" : 139992, "byteLength" : 122112, "byteStride" : 32, "target" : 34962}, {"buffer" : 0, "byteOffset" : 262108, "byteLength" : 76800, "byteStride" : 32, "target" : 34962}, {"buffer" : 0, "byteOffset" : 338912, "byteLength" : 31200, "byteStride" : 32, "target" : 34962}, {"buffer" : 0, "byteOffset" : 370116, "byteLength" : 23040, "byteStride" : 32, "target" : 34962}, {"buffer" : 0, "byteOffset" : 393160, "byteLength" : 475200, "byteStride" : 32, "target" : 34962}, {"buffer" : 0, "byteOffset" : 868364, "byteLength" : 1511424, "byteStride" : 32, "target" : 34962}], "cameras" : [{"perspective" : {"aspectRatio" : 1.7777777777777777, "yfov" : 0.9272952180016123, "zfar" : 10000, "znear" : 0.001}, "type" : "perspective", "name" : ""}], "materials" : [{"name" : "", "pbrMetallicRoughness" : {"baseColorFactor" : [1, 0.4745098039215686, 0, 1], "metallicFactor" : 0, "roughnessFactor" : 0}, "emissiveFactor" : [0, 0, 0], "alphaMode" : "OPAQUE", "doubleSided" : false}, {"name" : "", "pbrMetallicRoughness" : {"baseColorFactor" : [1, 0.7568627450980392, 0, 1], "metallicFactor" : 0, "roughnessFactor" : 0}, "emissiveFactor" : [0, 0, 0], "alphaMode" : "OPAQUE", "doubleSided" : false}, {"name" : "", "pbrMetallicRoughness" : {"baseColorFactor" : [1, 0.4745098039215686, 0, 1], "metallicFactor" : 0, "roughnessFactor" : 0}, "emissiveFactor" : [0, 0, 0], "alphaMode" : "OPAQUE", "doubleSided" : false}, {"name" : "", "pbrMetallicRoughness" : {"baseColorFactor" : [1, 0.4745098039215686, 0, 1], "metallicFactor" : 0, "roughnessFactor" : 0}, "emissiveFactor" : [0, 0, 0], "alphaMode" : "OPAQUE", "doubleSided" : false}, {"name" : "", "pbrMetallicRoughness" : {"baseColorFactor" : [0.9686274509803922, 0.2549019607843137, 0, 1], "metallicFactor" : 0, "roughnessFactor" : 0}, "emissiveFactor" : [0, 0, 0], "alphaMode" : "OPAQUE", "doubleSided" : false}, {"name" : "", "pbrMetallicRoughness" : {"baseColorFactor" : [1, 0.7568627450980392, 0, 1], "metallicFactor" : 0, "roughnessFactor" : 0}, "emissiveFactor" : [0, 0, 0], "alphaMode" : "OPAQUE", "doubleSided" : false}], "meshes" : [{"primitives" : [{"attributes" : {"POSITION" : 1, "NORMAL" : 2, "TEXCOORD_0" : 3}, "indices" : 0, "material" : 0, "mode" : 4}, {"attributes" : {"POSITION" : 5, "NORMAL" : 6, "TEXCOORD_0" : 7}, "indices" : 4, "material" : 1, "mode" : 4}], "name" : ""}, {"primitives" : [{"attributes" : {"POSITION" : 9, "NORMAL" : 10, "TEXCOORD_0" : 11}, "indices" : 8, "material" : 2, "mode" : 4}], "name" : ""}, {"primitives" : [{"attributes" : {"POSITION" : 13, "NORMAL" : 14, "TEXCOORD_0" : 15}, "indices" : 12, "material" : 3, "mode" : 4}], "name" : ""}, {"primitives" : [{"attributes" : {"POSITION" : 17, "NORMAL" : 18, "TEXCOORD_0" : 19}, "indices" : 16, "material" : 4, "mode" : 4}], "name" : ""}, {"primitives" : [{"attributes" : {"POSITION" : 21, "NORMAL" : 22, "TEXCOORD_0" : 23}, "indices" : 20, "material" : 5, "mode" : 4}], "name" : ""}], "nodes" : [{"camera" : 0, "matrix" : [-0.032958864652011144, 0.4038905443057424, 0.9142134003947119, 0, 0.014551450921742815, 0.9148073175376392, -0.4036283278656999, 0, -0.9993507735109443, 2.7755575615628914E-17, -0.036028203994613595, 0, -56.306691558372435, 84.92532094224131, 166.13969106619183, 1], "name" : "CINEMA_4D_Editor"}, {"matrix" : [0, 0, 0, 0, 0, 0, 0, 0, 0, 0, 0, 0, -60.02808140475989, -3.760949075058844, -0.9161497953764712, 1], "mesh" : 0, "name" : "Extrude_2"}, {"matrix" : [0, 0, 0, 0, 0, 0, 0, 0, 0, 0, 0, 0, -0.02051489171611043, -0.3108235314485839, -0.031819560458361096, 1], "mesh" : 1, "name" : "Center"}, {"matrix" : [0, 0, 0, 0, 0, 0, 0, 0, 0, 0, 0, 0, -0.012716186523230588, -0.7784758606185171, -0.07479134246731789, 1], "mesh" : 2, "name" : "baseCenter"}, {"matrix" : [0, 0, 0, 0, 0, 0, 0, 0, 0, 0, 0, 0, 0.017059104272426406, -0.02986131645683443, -0.11378756019204239, 1], "mesh" : 3, "name" : "outerRing"}, {"matrix" : [0, 0, 0, 0, 0, 0, 0, 0, 0, 0, 0, 0, 0.004276447710802378, -0.6422301287858403, -0.2991714142793329, 1], "mesh" : 4, "name" : "pedals"}, {"children" : [2, 3, 4, 5], "name" : "Daisy"}], "scene" : 0, "scenes" : [{"nodes" : [0, 1, 6]}]}